<svg xmlns="http://www.w3.org/2000/svg" width="190.482" height="139.214" viewBox="0 0 190.482 139.214">
  <g id="seacology" transform="translate(-0.041)">
    <g id="Component_5_5" data-name="Component 5 – 5" transform="translate(0.041)">
      <path id="Path_1" data-name="Path 1" d="M866.719,432.84c13.25.881,26.378,1.47,39.266,4.7,23.041,5.789,38.415,19.633,44.3,42.921,2.452,9.726,2.054,19.5-3.257,28.518a9.36,9.36,0,0,1-.926,1.51c-5.034,5.724-10.154,11.347-15.062,17.166-5.255,6.227-12.2,8.946-19.935,10.159-15.067,2.331-28.906-.8-41.219-9.751-8.654-6.3-14.724-14.6-15.867-25.492-1.007-9.706.191-19.044,8.211-26,4.531-3.947,10.068-5.9,15.913-7.083,8.13-1.656,16-1.133,23.459,2.859,4.944,2.643,8.447,11.165,6.5,16.381a3.441,3.441,0,0,1-2.245,2.014,68.3,68.3,0,0,1-8.664-.3c-1.656-.136-3.287-.609-4.938-.876a3.726,3.726,0,0,0-4.093,2.26c-.861,1.611-.659,2.809,1.007,3.816,5.583,3.388,14.407,2.276,19.361-.378a3.255,3.255,0,0,0,1.108-1.586c2.638-6.418,2.089-12.585-2.2-18.047-3.146-4-6.711-7.692-10.249-11.372a4.607,4.607,0,0,0-3.177-1.007,54.614,54.614,0,0,0-27.632,7.39c-21.485,12.615-32.581,32.108-35.782,56.412a74.839,74.839,0,0,0,2.593,31.84c.805,2.638,1.832,5.215,2.889,7.768s.962,3.474-1.833,3.781a56.3,56.3,0,0,1-12.207.231c-5.487-.594-10.894-1.923-16.341-2.89-1.677-.3-2.014-1.46-1.807-2.784.831-5.457,1.057-11.13,2.779-16.3q8.412-25.281,17.825-50.23A70.618,70.618,0,0,1,841.67,472.4c9.63-9.253,20.806-14.931,34.353-16.008,10.7-.856,20.922.428,30.708,4.843,6.781,3.071,12.082,7.7,14.941,14.84,3.156,7.9,1.279,14.775-4,21.028-6.67,7.908-21.46,11.891-31.146,8.412a13.294,13.294,0,0,1-9.107-12.61c0-10.572.231-10.285,9.358-12.419a47.8,47.8,0,0,0,6.041-1.711c.679-.252,1.077-1.248,1.605-1.9-.664-.5-1.344-1.51-2.014-1.475-4.918.146-9.942-.05-14.725.9-6.887,1.364-10.5,7.934-8.966,14.83s5.538,12.354,10.466,17.116a42.434,42.434,0,0,0,14.5,9.268c7.647,2.945,14.765,1.742,20.64-3.962,9.706-9.424,13.939-21.208,14.292-34.393.287-10.763-4.838-18.712-14.216-24-8.145-4.591-16.935-6.665-26.177-7.214a81.9,81.9,0,0,0-38.048,6.428c-12.132,5.281-20.76,14.574-27.793,25.452-7.934,12.268-13.507,25.649-17.74,39.578-.861,2.829-.715,5.955-1.178,8.925a48.318,48.318,0,0,1-1.7,8.558c-2.824,8-5.93,15.908-5.341,24.632.141,2.049-1.127,2.738-2.794,2.723a78.1,78.1,0,0,1-10.018-.463c-6.872-1.007-13.7-2.366-20.544-3.524-1.9-.327-2.25-1.359-1.344-2.839,1.621-2.643,3.453-5.155,5.034-7.823q11.88-20.136,23.66-40.328c2.114-3.62,4.244-7.234,6.182-10.949.916-1.757,1.938-3.745,1.938-5.628,0-4.647,2.114-8.352,4.334-12.117,3.524-5.99,7.108-11.961,10.481-18.047,3.635-6.544,8.931-11.538,14.951-15.716a153.745,153.745,0,0,1,15.279-9.192,28.991,28.991,0,0,1,8.332-2.658C856.8,434.043,861.776,433.525,866.719,432.84Z" transform="translate(-761.251 -432.84)" fill="#fff"/>
      <path id="Path_2" data-name="Path 2" d="M924.86,567.222c-.5,23.509,9.163,42.034,27.577,56.261.855.664,1.842,1.158,2.763,1.737,2.25,1.415,2.331,2.129-.076,3.393a37.573,37.573,0,0,1-7.843,3.3c-6.65,1.7-13.366,3.167-20.1,4.531-4.027.816-4.958.307-5.854-3.785-1.087-4.979-1.51-10.093-2.557-15.1-.715-3.474-2.014-6.832-2.945-10.265a9.388,9.388,0,0,1-.217-2.663c.086-4.5.468-9.016.252-13.5-.307-6.489.367-12.671,3.4-18.536a58.3,58.3,0,0,0,2.839-7.234c.393-1.093.438-2.613,2.079-2.089.469.146.574,1.586.74,2.452A6.29,6.29,0,0,1,924.86,567.222Z" transform="translate(-837.896 -497.555)" fill="#fff"/>
      <path id="Path_3" data-name="Path 3" d="M1025.163,638.762c-1.072,1.631-1.651,2.713-2.416,3.64-5.311,6.409-12.434,9.142-20.474,9.943a40.181,40.181,0,0,1-27.456-6.791,21.482,21.482,0,0,1-8.835-11.578,15.262,15.262,0,0,1-.463-1.958,8.742,8.742,0,0,1,.216-1.687c3.051,1.3,5.9,2.366,8.6,3.72,3.438,1.731,6.685,3.846,10.138,5.537,8.981,4.41,18.254,3.337,27.557,1.2q4.777-1.1,9.6-2.013A25.012,25.012,0,0,1,1025.163,638.762Z" transform="translate(-862.689 -530.912)" fill="#fff"/>
    </g>
  </g>
</svg>
