<svg xmlns="http://www.w3.org/2000/svg" xmlns:xlink="http://www.w3.org/1999/xlink" width="146.923" height="131.299" viewBox="0 0 146.923 131.299">
  <defs>
    <filter id="Path_1" x="0" y="0" width="146.923" height="131.299" filterUnits="userSpaceOnUse">
      <feOffset dy="15" input="SourceAlpha"/>
      <feGaussianBlur stdDeviation="15" result="blur"/>
      <feFlood flood-opacity="0.435"/>
      <feComposite operator="in" in2="blur"/>
      <feComposite in="SourceGraphic"/>
    </filter>
  </defs>
  <g id="Group_192" data-name="Group 192" transform="translate(45 30)">
    <g transform="matrix(1, 0, 0, 1, -45, -30)" filter="url(#Path_1)">
      <path id="Path_1-2" data-name="Path 1" d="M792.769,432.84a65.6,65.6,0,0,1,11.734,1.406c6.885,1.732,11.48,5.873,13.239,12.839a10.989,10.989,0,0,1-.973,8.531,2.8,2.8,0,0,1-.277.452c-1.5,1.712-3.034,3.394-4.5,5.135a9.224,9.224,0,0,1-5.957,3.039,16.022,16.022,0,0,1-12.318-2.917,10.709,10.709,0,0,1-4.742-7.626c-.3-2.9.057-5.7,2.454-7.776a11.5,11.5,0,0,1,11.766-1.263,4.628,4.628,0,0,1,1.944,4.9,1.029,1.029,0,0,1-.671.6,20.418,20.418,0,0,1-2.589-.09c-.495-.041-.982-.182-1.476-.262a1.113,1.113,0,0,0-1.223.676.744.744,0,0,0,.3,1.141,6.5,6.5,0,0,0,5.786-.113.975.975,0,0,0,.331-.474,5.107,5.107,0,0,0-.659-5.4c-.94-1.2-2.005-2.3-3.063-3.4a1.376,1.376,0,0,0-.949-.3,16.308,16.308,0,0,0-8.257,2.211c-6.421,3.774-9.736,9.6-10.693,16.875a22.407,22.407,0,0,0,.775,9.524c.241.789.548,1.56.864,2.323s.287,1.039-.548,1.131a16.8,16.8,0,0,1-3.648.069c-1.64-.178-3.255-.575-4.883-.864-.5-.089-.6-.437-.54-.833a29.5,29.5,0,0,1,.83-4.876q2.514-7.562,5.327-15.025a21.124,21.124,0,0,1,5.133-7.8,16.286,16.286,0,0,1,10.266-4.789,18.284,18.284,0,0,1,9.177,1.449,8.135,8.135,0,0,1,4.465,4.439,5.8,5.8,0,0,1-1.194,6.29,9.455,9.455,0,0,1-9.308,2.516,3.976,3.976,0,0,1-2.721-3.772c0-3.162.069-3.076,2.8-3.715a14.273,14.273,0,0,0,1.805-.512c.2-.075.322-.373.48-.569-.2-.151-.4-.452-.6-.441a26.709,26.709,0,0,0-4.4.27,3.539,3.539,0,0,0-2.679,4.436,10.229,10.229,0,0,0,3.128,5.12,12.681,12.681,0,0,0,4.334,2.772A5.475,5.475,0,0,0,807,456.983a14.293,14.293,0,0,0,4.271-10.288,7.607,7.607,0,0,0-4.248-7.178,17.754,17.754,0,0,0-7.823-2.158,24.453,24.453,0,0,0-11.37,1.923,19.114,19.114,0,0,0-8.306,7.614,46.5,46.5,0,0,0-5.3,11.839,19.615,19.615,0,0,0-.352,2.67,14.467,14.467,0,0,1-.509,2.56c-.844,2.393-1.772,4.758-1.6,7.368.042.613-.337.819-.835.815a23.3,23.3,0,0,1-2.994-.139c-2.053-.3-4.093-.708-6.139-1.054-.569-.1-.672-.407-.4-.849.484-.791,1.032-1.542,1.5-2.34q3.55-6.023,7.071-12.063c.632-1.083,1.268-2.164,1.847-3.275a3.944,3.944,0,0,0,.579-1.684,7.056,7.056,0,0,1,1.3-3.625c1.053-1.792,2.124-3.578,3.132-5.4a14.148,14.148,0,0,1,4.468-4.7,45.937,45.937,0,0,1,4.566-2.75,8.659,8.659,0,0,1,2.49-.8C789.805,433.2,791.291,433.045,792.769,432.84Z" transform="translate(-716.25 -402.84)" fill="#02a1b1"/>
    </g>
    <path id="Path_2" data-name="Path 2" d="M918.037,564.229a17.412,17.412,0,0,0,7.27,14.831c.225.175.486.305.729.458.593.373.614.561-.02.894a9.9,9.9,0,0,1-2.068.869c-1.753.449-3.523.835-5.3,1.194-1.062.215-1.307.081-1.543-1-.287-1.313-.4-2.661-.674-3.981-.188-.916-.531-1.8-.776-2.706a2.471,2.471,0,0,1-.057-.7c.023-1.187.123-2.377.066-3.559a9.358,9.358,0,0,1,.9-4.886,15.35,15.35,0,0,0,.749-1.907c.1-.288.115-.689.548-.551.123.039.151.418.195.646a1.649,1.649,0,0,1-.016.4Z" transform="translate(-891.617 -540.961)" fill="#02a1b1"/>
    <path id="Path_3" data-name="Path 3" d="M981.243,632.553c-.283.43-.435.715-.637.959a7.607,7.607,0,0,1-5.4,2.621,10.593,10.593,0,0,1-7.238-1.79,5.663,5.663,0,0,1-2.329-3.052,4.03,4.03,0,0,1-.122-.516,2.3,2.3,0,0,1,.057-.445c.8.344,1.555.624,2.268.981.906.457,1.762,1.014,2.673,1.46,2.367,1.162,4.812.88,7.264.317q1.259-.289,2.531-.531A6.594,6.594,0,0,1,981.243,632.553Z" transform="translate(-931.703 -599.218)" fill="#02a1b1"/>
  </g>
</svg>
